/* XPM */
static char * bottom_active_xpm[] = {
"6 6 2 1",
" 	c #EDEDED",
".	c #A8A8A8",
"      ",
"      ",
"      ",
"      ",
"      ",
"......",};
