/* XPM */
static char * bottom_right_inactive_xpm[] = {
"6 6 2 1",
" 	c #EDEDED",
".	c #A8A8A8",
"     .",
"     .",
"     .",
"     .",
"     .",
"......",};
