/* XPM */
static char * close_pressed_xpm[] = {
"28 38 2 1",
" 	c None",
".	c #FF00FF",
"                            ",
"                            ",
"............................",
"............................",
"............................",
"............................",
"............................",
"............................",
"............................",
"............................",
"............................",
"............................",
"............................",
"............................",
"............................",
"............................",
"............................",
"............................",
"............................",
"............................",
"............................",
"............................",
"............................",
"............................",
"............................",
"............................",
"............................",
"............................",
"............................",
"............................",
"............................",
"............................",
"............................",
"............................",
"............................",
"............................",
"                            ",
"                            "};
