/* XPM */
static char * close_inactive_xpm[] = {
"28 38 25 1",
" 	c #EDEDED",
".	c #E6E6E6",
"+	c #E5E5E5",
"@	c #E5E5E6",
"#	c #E4E5E5",
"$	c #E3E4E4",
"%	c #E2E3E3",
"&	c #E1E1E1",
"*	c #E0E0E0",
"=	c #A8A8A8",
"-	c #A5A7A8",
";	c #A4A6A7",
">	c #A1A1A1",
",	c #A0A2A3",
"'	c #9FA2A3",
")	c #9EA1A1",
"!	c #9FA1A2",
"~	c #9DA0A1",
"{	c #9D9FA0",
"]	c #9C9E9F",
"^	c #9B9E9E",
"/	c #9A9D9E",
"(	c #999C9D",
"_	c #989B9C",
":	c #8D9091",
"============================",
"                            ",
"                            ",
"                            ",
"                            ",
"                            ",
"                            ",
"                            ",
"                            ",
"                            ",
"                            ",
"                            ",
"                            ",
"                            ",
"                            ",
"          :;+  .-:          ",
"          ~:)++':]          ",
"          %/:)!:(&          ",
"           %/::_*           ",
"           @)::^$           ",
"          #{:]]:]#          ",
"          ,:]##]:'          ",
"          :'#  #':          ",
"                            ",
"                            ",
"                            ",
"                            ",
"                            ",
"                            ",
"                            ",
"                            ",
"                            ",
"                            ",
"                            ",
"                            ",
"                            ",
"                            ",
">>>>>>>>>>>>>>>>>>>>>>>>>>>>"};
