/* XPM */
static char * hide_prelight_xpm[] = {
"28 38 2 1",
" 	c None",
".	c #FF00FF",
"                            ",
"                            ",
"............................",
"............................",
"............................",
"............................",
"............................",
"............................",
"............................",
"............................",
"............................",
"............................",
"............................",
"............................",
"............................",
"............................",
"............................",
"............................",
"............................",
"............................",
"............................",
"............................",
"............................",
"............................",
"............................",
"............................",
"............................",
"............................",
"............................",
"............................",
"............................",
"............................",
"............................",
"............................",
"............................",
"............................",
"                            ",
"                            "};
