/* XPM */
static char * maximize_toggled_inactive_xpm[] = {
"28 38 4 1",
" 	c #EDEDED",
".	c #A8A8A8",
"+	c #A1A1A1",
"@	c #8D9091",
"............................",
"                            ",
"                            ",
"                            ",
"                            ",
"                            ",
"                            ",
"                            ",
"                            ",
"                            ",
"                            ",
"                            ",
"                            ",
"                            ",
"                            ",
"                            ",
"           @@@@@@           ",
"           @@@@@@           ",
"           @@  @@           ",
"           @@  @@           ",
"           @@@@@@           ",
"           @@@@@@           ",
"                            ",
"                            ",
"                            ",
"                            ",
"                            ",
"                            ",
"                            ",
"                            ",
"                            ",
"                            ",
"                            ",
"                            ",
"                            ",
"                            ",
"                            ",
"++++++++++++++++++++++++++++"};
