/* XPM */
static char * menu_active_xpm[] = {
"16 38 2 1",
" 	c None",
".	c #FF00FF",
"                ",
"                ",
"................",
"................",
"................",
"................",
"................",
"................",
"................",
"................",
"................",
"................",
"................",
"................",
"................",
"................",
"................",
"................",
"................",
"................",
"................",
"................",
"................",
"................",
"................",
"................",
"................",
"................",
"................",
"................",
"................",
"................",
"................",
"................",
"................",
"................",
"                ",
"                "};
