/* XPM */
static char * menu_pressed_xpm[] = {
"16 38 2 1",
" 	c None",
".	c #FF00FF",
"                ",
"                ",
"................",
"................",
"................",
"................",
"................",
"................",
"................",
"................",
"................",
"................",
"................",
"................",
"................",
"................",
"................",
"................",
"................",
"................",
"................",
"................",
"................",
"................",
"................",
"................",
"................",
"................",
"................",
"................",
"................",
"................",
"................",
"................",
"................",
"................",
"                ",
"                "};
