/* XPM */
static char * menu_inactive_xpm[] = {
"16 38 3 1",
" 	c #EDEDED",
".	c #A8A8A8",
"+	c #A1A1A1",
"................",
"                ",
"                ",
"                ",
"                ",
"                ",
"                ",
"                ",
"                ",
"                ",
"                ",
"                ",
"                ",
"                ",
"                ",
"                ",
"                ",
"                ",
"                ",
"                ",
"                ",
"                ",
"                ",
"                ",
"                ",
"                ",
"                ",
"                ",
"                ",
"                ",
"                ",
"                ",
"                ",
"                ",
"                ",
"                ",
"                ",
"++++++++++++++++"};
