/* XPM */
static char * right_inactive_xpm[] = {
"6 1 2 1",
" 	c #EDEDED",
".	c #A8A8A8",
"     ."};
