/* XPM */
static char * shade_inactive_xpm[] = {
"28 38 13 1",
" 	c #EDEDED",
".	c #E5E5E6",
"+	c #E4E5E5",
"@	c #E3E4E4",
"#	c #A8A8A8",
"$	c #9FA2A3",
"%	c #A0A2A3",
"&	c #A1A1A1",
"*	c #9EA1A1",
"=	c #9D9FA0",
"-	c #9B9E9E",
";	c #9C9E9F",
">	c #8D9091",
"############################",
"                            ",
"                            ",
"                            ",
"                            ",
"                            ",
"                            ",
"                            ",
"                            ",
"                            ",
"                            ",
"                            ",
"                            ",
"                            ",
"                            ",
"                            ",
"            .**.            ",
"           .*>>-@           ",
"          +=>;;>;+          ",
"          %>;++;>$          ",
"          >$+  +$>          ",
"                            ",
"                            ",
"                            ",
"                            ",
"                            ",
"                            ",
"                            ",
"                            ",
"                            ",
"                            ",
"                            ",
"                            ",
"                            ",
"                            ",
"                            ",
"                            ",
"&&&&&&&&&&&&&&&&&&&&&&&&&&&&"};
