/* XPM */
static char * stick_toggled_inactive_xpm[] = {
"28 38 2 1",
" 	c None",
".	c #FF00FF",
"                            ",
"                            ",
"                            ",
"                            ",
"                            ",
"............................",
"............................",
"............................",
"............................",
"............................",
"............................",
"............................",
"............................",
"............................",
"............................",
"............................",
"............................",
"............................",
"............................",
"............................",
"............................",
"............................",
"............................",
"............................",
"............................",
"............................",
"............................",
"............................",
"............................",
"............................",
"............................",
"............................",
"............................",
"                            ",
"                            ",
"                            ",
"                            ",
"                            "};
