/* XPM */
static char * stick_inactive_xpm[] = {
"28 38 32 1",
" 	c #EDEDED",
".	c #ECECEC",
"+	c #EBEBEB",
"@	c #EAEAEA",
"#	c #D9DADA",
"$	c #D6D6D7",
"%	c #D6D7D7",
"&	c #D5D6D6",
"*	c #D4D5D5",
"=	c #D2D3D3",
"-	c #D1D2D2",
";	c #CDCECE",
">	c #B2B3B4",
",	c #AFB1B2",
"'	c #ADB0B0",
")	c #ADAFB0",
"!	c #A8A8A8",
"~	c #A6A8A9",
"{	c #A2A4A5",
"]	c #9FA2A3",
"^	c #A1A1A1",
"/	c #9EA0A1",
"(	c #9C9FA0",
"_	c #989B9B",
":	c #969899",
"<	c #959899",
"[	c #939697",
"}	c #909394",
"|	c #8F9293",
"1	c #8E9192",
"2	c #8F9192",
"3	c #8D9091",
"!!!!!!!!!!!!!!!!!!!!!!!!!!!!",
"                            ",
"                            ",
"                            ",
"                            ",
"                            ",
"                            ",
"                            ",
"                            ",
"                            ",
"                            ",
"                            ",
"                            ",
"                            ",
"                            ",
"           ;(12/=.          ",
"          *[1113|&          ",
"          _3>++'3{          ",
"          13.  +1}          ",
"          33.  +1}          ",
"          /1,@@)1~          ",
"          -:3333<%          ",
"           $]|1(#           ",
"                            ",
"                            ",
"                            ",
"                            ",
"                            ",
"                            ",
"                            ",
"                            ",
"                            ",
"                            ",
"                            ",
"                            ",
"                            ",
"                            ",
"^^^^^^^^^^^^^^^^^^^^^^^^^^^^"};
