/* XPM */
static char * title_4_active_xpm[] = {
"1 38 6 1",
" 	c None",
".	c #FFFFFF",
"+	c #D9D9D9",
"@	c #A8A8A8",
"#	c #A1A1A1",
"$	c #FF00FF",
"@",
".",
" ",
" ",
" ",
" ",
" ",
" ",
" ",
" ",
" ",
" ",
" ",
" ",
" ",
" ",
" ",
" ",
" ",
" ",
" ",
" ",
" ",
" ",
" ",
" ",
" ",
" ",
" ",
" ",
" ",
" ",
" ",
" ",
" ",
" ",
"+",
"#"};
