/* XPM */
static char * top_right_inactive_xpm[] = {
"6 38 5 1",
" 	c None",
".	c #EDEDED",
"+	c #A8A8A8",
"@	c #A1A1A1",
"#	c #FF00FF",
"++    ",
"..++  ",
"....+ ",
"....+ ",
".....+",
".....+",
".....+",
".....+",
".....+",
".....+",
".....+",
".....+",
".....+",
".....+",
".....+",
".....+",
".....+",
".....+",
".....+",
".....+",
".....+",
".....+",
".....+",
".....+",
".....+",
".....+",
".....+",
".....+",
".....+",
".....+",
".....+",
".....+",
".....+",
".....+",
".....+",
".....+",
".....+",
"@@@@@+"};
